<svg xmlns="http://www.w3.org/2000/svg" xmlns:xlink="http://www.w3.org/1999/xlink" width="500" height="500" viewBox="0 0 500 500">
  <defs>
    <clipPath id="clip-_500X500_pricing-basic">
      <rect width="500" height="500"/>
    </clipPath>
  </defs>
  <g id="_500X500_pricing-basic" data-name="500X500_pricing-basic" clip-path="url(#clip-_500X500_pricing-basic)">
    <g id="AdobeStock_186121483" transform="translate(95.75 65.752)">
      <path id="Path_96557" data-name="Path 96557" d="M96.223,22.991A68.422,68.422,0,1,1,27.8,91.413,68.484,68.484,0,0,1,96.223,22.991m0-14.231a82.653,82.653,0,1,0,82.653,82.653A82.647,82.647,0,0,0,96.223,8.76Z" transform="translate(57.81 35.25)" fill="#0065f2"/>
      <path id="Path_96559" data-name="Path 96559" d="M124.482,3.651c5.294-3.359,13.776-3.188,18.9.455L162.393,17.6a54.893,54.893,0,0,0,20.549,8.083L206,28.7c6.2.8,12.58,6.432,14.174,12.466l5.863,22.542c1.594,6.034,6.319,14.8,10.588,19.411l15.768,17.134c4.212,4.611,5.522,13.036,2.846,18.671l-9.962,21a54.435,54.435,0,0,0-4.383,21.631l1.025,23.282c.285,6.262-4.155,13.491-9.848,16.109l-21.176,9.677A54.146,54.146,0,0,0,193.644,224.4L179.47,242.9c-3.814,4.952-11.84,7.685-17.874,6.034l-22.485-6.148a54.482,54.482,0,0,0-22.086-.512l-22.713,5.066c-6.091,1.366-14-1.765-17.589-6.888L63.516,221.271a53.723,53.723,0,0,0-16.565-14.629l-20.663-10.7c-5.579-2.9-9.62-10.36-9.051-16.565L19.4,156.207a54.955,54.955,0,0,0-3.3-21.859L7.162,112.831c-2.391-5.806-.74-14.117,3.757-18.5L27.483,77.993a54.4,54.4,0,0,0,11.5-18.842l6.945-22.2c1.878-5.977,8.539-11.271,14.743-11.783L83.895,23.29a54.745,54.745,0,0,0,20.948-7.059L124.482,3.708Z" transform="translate(22.607 0)" fill="none" stroke="#0065f2" stroke-linejoin="round" stroke-width="14"/>
      <path id="Path_96560" data-name="Path 96560" d="M122.9,87.706,76.959,179.979l-15.711-64.1-60,26.7,49.3-101.21" transform="translate(0 188.268)" fill="none" stroke="#0065f2" stroke-linejoin="round" stroke-width="14"/>
      <path id="Path_96561" data-name="Path 96561" d="M33.56,87.706l45.881,92.273,15.711-64.1,60,26.7-49.3-101.21" transform="translate(151.611 188.268)" fill="none" stroke="#0065f2" stroke-linejoin="round" stroke-width="14"/>
      <path id="Path_963" data-name="Path 963" d="M325.607,74.519l17.082,23.3,41.239-46.9" transform="translate(-200.518 54.602)" fill="none" stroke="#0065f2" stroke-linecap="round" stroke-linejoin="round" stroke-width="16"/>
    </g>
  </g>
</svg>
